<svg xmlns="http://www.w3.org/2000/svg" viewBox="0 0 34 34"><title>cart-icon</title><path d="M-2-2H32V32H-2Z" transform="translate(2 2)" fill="none"/><path d="M23.5,23.5a2.82,2.82,0,0,0-2.83,2.81s0,0,0,0A2.83,2.83,0,1,0,23.5,23.5ZM.83.83V3.67H3.67l5.1,10.75L6.84,17.89a2.88,2.88,0,0,0-.34,1.36,2.83,2.83,0,0,0,2.83,2.83h17V19.25H9.93a.35.35,0,0,1-.35-.35h0a.3.3,0,0,1,0-.17l1.27-2.31H21.45A2.85,2.85,0,0,0,23.92,15L29,5.79a1.8,1.8,0,0,0,.17-.71,1.42,1.42,0,0,0-1.42-1.42H6.8L5.47.83ZM9.33,23.5A2.82,2.82,0,0,0,6.5,26.31s0,0,0,0A2.83,2.83,0,1,0,9.33,23.5Z" transform="translate(2 2)" fill="#626f77"/></svg>