<svg xmlns="http://www.w3.org/2000/svg" viewBox="0 0 86.91 30.76"><title>master-icon</title><g opacity="0.44"><path d="M82.55,12.62a1.64,1.64,0,1,1,1.64,1.71A1.68,1.68,0,0,1,82.55,12.62Zm1.64,1.31a1.3,1.3,0,1,0-1.25-1.31A1.28,1.28,0,0,0,84.18,13.93ZM84,13.37h-.33V11.86h.61a.62.62,0,0,1,.37.08.47.47,0,0,1,.18.38.4.4,0,0,1-.25.38l.26.67h-.37l-.22-.59H84Zm0-.85h.19a.42.42,0,0,0,.21,0,.21.21,0,0,0,.08-.17.18.18,0,0,0-.08-.15.45.45,0,0,0-.21,0H84ZM59.15,1.24l-.45,2.9a5,5,0,0,0-2.45-.72c-2,0-3.48,2.06-3.48,5,0,2,1,3.26,2.56,3.26A5.07,5.07,0,0,0,57.66,11l-.48,3.05a8.17,8.17,0,0,1-2.42.39c-3,0-4.79-2.22-4.79-5.77C50,3.89,52.51.55,56.14.55a4.53,4.53,0,0,1,1.23.14L58.49,1l.66.26Zm-9.09,2-.28,0c-.9,0-1.41.47-2.25,1.77l.24-1.65H45.3L43.62,14.2h2.75c1-6.65,1.24-7.8,2.55-7.8h.2a10.78,10.78,0,0,1,1-3.15ZM33.68,14.07a6,6,0,0,1-2,.36c-1.4,0-2.16-.85-2.16-2.39a6.2,6.2,0,0,1,.08-1L29.8,10l.13-.87,1.19-7.42h2.72l-.31,1.61h1.4L34.54,6h-1.4l-.72,4.54a4.45,4.45,0,0,0,0,.45c0,.56.29.81.93.81a2.14,2.14,0,0,0,.74-.1ZM22.89,6.76a3.16,3.16,0,0,0,2.07,3c1.1.55,1.28.7,1.28,1.2,0,.68-.49,1-1.57,1a7.27,7.27,0,0,1-2.45-.44l-.38,2.51.12,0,.5.11c.16,0,.4.06.71.1.65.06,1.15.09,1.51.09,2.87,0,4.2-1.15,4.2-3.63a3,3,0,0,0-1.92-3C25.83,7.18,25.7,7,25.7,6.54s.45-.89,1.33-.89a15,15,0,0,1,2,.16l.39-2.51A17.17,17.17,0,0,0,27,3.09C23.93,3.09,22.88,4.76,22.89,6.76ZM81,14.2H78.37l.14-1.06A3.19,3.19,0,0,1,76,14.34c-2,0-3.31-1.8-3.31-4.51,0-3.62,2-6.67,4.46-6.67a3.09,3.09,0,0,1,2.63,1.49l.6-3.82H83Zm-4-2.56c1.28,0,2.17-1.51,2.17-3.66,0-1.38-.51-2.14-1.46-2.14-1.24,0-2.12,1.52-2.12,3.66,0,1.42.47,2.14,1.4,2.14ZM42.35,14a9.1,9.1,0,0,1-2.81.44c-3.05,0-4.65-1.67-4.65-4.87,0-3.74,2-6.49,4.79-6.49,2.25,0,3.69,1.54,3.69,4A12,12,0,0,1,43,9.69H37.58a2.15,2.15,0,0,0,0,.34c0,1.27.81,1.91,2.41,1.91a6.19,6.19,0,0,0,2.84-.69L42.35,14ZM40.81,7.49c0-.23,0-.41,0-.55a1.24,1.24,0,0,0-1.3-1.41c-.87,0-1.49.69-1.74,2ZM11.9,14.2H9.16L10.73,3.92,7.23,14.2H5.35L5.13,4,3.48,14.2H.92L3.05.82H7L7.1,9.1,9.76.82H14Zm7-4.85a4.6,4.6,0,0,0-.61,0C16.78,9.31,16,9.87,16,11a1,1,0,0,0,1,1.11C18.09,12.08,18.9,11,18.94,9.35Zm2,4.84H18.67l0-1.13a3.35,3.35,0,0,1-2.87,1.32c-1.49,0-2.51-1.21-2.51-3,0-2.66,1.78-4.2,4.81-4.2a8.31,8.31,0,0,1,1.11.08,2.82,2.82,0,0,0,.11-.71c0-.72-.48-1-1.76-1a8.28,8.28,0,0,0-2.28.31L15,6l-.24.07.38-2.44a10.44,10.44,0,0,1,3.28-.59c2.35,0,3.6,1.11,3.6,3.19a12.84,12.84,0,0,1-.23,2.16l-.57,3.85-.09.7-.07.56,0,.38ZM63.87,9.35a4.54,4.54,0,0,0-.61,0c-1.56,0-2.35.56-2.35,1.66a1,1,0,0,0,1,1.11C63,12.08,63.82,11,63.87,9.35Zm2,4.85H63.59l.05-1.13a3.35,3.35,0,0,1-2.87,1.32c-1.49,0-2.51-1.21-2.51-3,0-2.66,1.77-4.2,4.81-4.2a8.28,8.28,0,0,1,1.11.08,2.86,2.86,0,0,0,.11-.71c0-.72-.47-1-1.76-1a8.21,8.21,0,0,0-2.27.31L59.88,6l-.24.07L60,3.66a10.45,10.45,0,0,1,3.27-.59c2.36,0,3.6,1.11,3.6,3.19a13.91,13.91,0,0,1-.22,2.16l-.58,3.85L66,13l-.08.56-.05.38Zm7.65-11-.28,0c-.9,0-1.41.47-2.25,1.77l.24-1.65H68.75L67.07,14.2h2.74c1-6.65,1.24-7.8,2.55-7.8a.7.7,0,0,1,.19,0,10.92,10.92,0,0,1,1-3.15Z" transform="translate(-0.39 -0.55)" fill="#626f77"/><path d="M62,24.75c0,2.47-.77,3.92-2,3.92-.88,0-1.42-1-1.42-2.42,0-1.73.78-3.69,2-3.69C61.67,22.56,62,23.62,62,24.75Zm2.69,0c0-2.74-1.36-4.87-3.92-4.87-2.94,0-4.85,2.59-4.85,6.41,0,2.74,1.13,5,3.91,5S64.71,29.32,64.71,24.8ZM56.82,18l-.42,2.9a4.51,4.51,0,0,0-2.29-.72c-1.91,0-3.25,2.07-3.25,5,0,2,.9,3.26,2.39,3.26a4.49,4.49,0,0,0,2.17-.69L55,30.81a7.19,7.19,0,0,1-2.27.39c-2.76,0-4.47-2.22-4.47-5.77,0-4.79,2.37-8.13,5.76-8.13a4.35,4.35,0,0,1,1.15.14l1,.3C56.53,17.86,56.6,17.88,56.82,18ZM39.9,20a1,1,0,0,0-.26,0c-.83,0-1.32.48-2.1,1.77l.23-1.65H35.45L33.89,31h2.56c.92-6.66,1.16-7.8,2.39-7.8H39A11.41,11.41,0,0,1,40,20ZM73.29,30.84H70.87L71,29.78A2.92,2.92,0,0,1,68.63,31c-1.86,0-3.09-1.8-3.09-4.52,0-3.61,1.91-6.68,4.17-6.68a2.84,2.84,0,0,1,2.45,1.5l.56-3.83h2.52Zm-3.78-2.56c1.21,0,2-1.51,2-3.66,0-1.39-.47-2.13-1.35-2.13-1.16,0-2,1.51-2,3.66,0,1.42.44,2.14,1.31,2.14ZM15.93,30.79a7.9,7.9,0,0,1-2.62.44C10.45,31.24,9,29.56,9,26.37c0-3.73,1.9-6.49,4.47-6.49,2.11,0,3.45,1.54,3.45,4a13.25,13.25,0,0,1-.31,2.68H11.48a3.36,3.36,0,0,0,0,.34c0,1.27.76,1.91,2.24,1.91a5.51,5.51,0,0,0,2.65-.69ZM14.5,24.32c0-.23,0-.41,0-.55,0-.89-.45-1.41-1.21-1.41s-1.4.7-1.63,1.95H14.5Zm31.84,6.47a7.93,7.93,0,0,1-2.62.44c-2.86,0-4.35-1.68-4.35-4.87,0-3.73,1.9-6.49,4.47-6.49,2.11,0,3.46,1.54,3.46,4A12.87,12.87,0,0,1,47,26.52H41.88c0,.16,0,.24,0,.34,0,1.27.76,1.91,2.24,1.91a5.52,5.52,0,0,0,2.66-.69ZM44.9,24.32q0-.28,0-.55c0-.89-.45-1.41-1.21-1.41s-1.4.7-1.63,1.95ZM82,30.79a8,8,0,0,1-2.63.44c-2.86,0-4.35-1.68-4.35-4.87,0-3.73,1.9-6.49,4.47-6.49,2.11,0,3.45,1.54,3.45,4a12.75,12.75,0,0,1-.32,2.68H77.55a2.77,2.77,0,0,0,0,.34c0,1.27.76,1.91,2.25,1.91a5.52,5.52,0,0,0,2.66-.69Zm-1.44-6.47c0-.23,0-.41,0-.55,0-.89-.45-1.41-1.21-1.41s-1.39.7-1.63,1.95ZM8.36,20.48a3.72,3.72,0,0,0-2.14-.62c-1,0-1.86.21-1.86,1.31,0,1.93,3.77,1.21,3.77,5.35,0,3.77-2.49,4.75-4.74,4.75a8,8,0,0,1-3-.7L1,27.78a4,4,0,0,0,2.39.78c.8,0,2.07-.22,2.07-1.62,0-2.19-3.77-1.37-3.77-5.22,0-3.52,2.2-4.57,4.32-4.57a5.79,5.79,0,0,1,3,.61l-.63,2.71ZM23.41,30.79a5.14,5.14,0,0,1-2.27.42c-2.23,0-3.62-2.22-3.62-4.93,0-3.54,2-6.37,5-6.37a5.41,5.41,0,0,1,2.4.72l-.57,2.6a3.15,3.15,0,0,0-1.71-.59c-1.37,0-2.34,1.25-2.34,3.48,0,1.29.71,2.34,1.83,2.34A3.09,3.09,0,0,0,23.79,28l-.38,2.79ZM33,28.07q-.21,1.4-.33,2.82H30.19l.21-1.76h0c-.77,1.2-1.57,2-3,2-1.55,0-2.38-1.62-2.38-3.73a13.61,13.61,0,0,1,.21-2.28l.7-5h2.74l-.73,5.05a11.87,11.87,0,0,0-.18,1.64c0,.64.29,1.28,1,1.24,1.12,0,1.78-1.37,2-3l.76-5h2.65Zm51.58,2.69h-.41V29h-.6v-.39h1.61V29h-.6Zm2.75,0h-.39V28.92h0l-.37,1.83h-.4l-.36-1.83h0v1.83h-.39V28.56H86l.36,1.73h0l.35-1.73h.6Z" transform="translate(-0.39 -0.55)" fill="#626f77"/></g></svg>