<svg xmlns="http://www.w3.org/2000/svg" viewBox="0 0 76.27 42.88"><title>visa-icon</title><g opacity="0.44"><path d="M65.3,28.52q-.15,1.22-.42,2.43a6.61,6.61,0,0,0-2.75-.53c-.71,0-1.54.32-1.55.95s1.15,1.12,1.79,1.42c1.16.55,2.41,1.29,2.51,2.79a3.52,3.52,0,0,1-1.08,2.73c-1.63,1.53-5.24,1.69-7.7.71q.23-1.24.42-2.49a7.26,7.26,0,0,0,3.7.77c.65-.08,1.46-.46,1.43-1.13s-1.56-1.3-2.33-1.72a3.28,3.28,0,0,1-2-2.55,3.24,3.24,0,0,1,.72-2.14C59.35,28.2,62.62,27.64,65.3,28.52ZM36,12.65h3.29l-2,12.68H34Zm-11.41,0h5c3.21,0,4,1.83,3.69,4A4.26,4.26,0,0,1,30,20.15l3.19,5.18H29.08l-2.4-5-.8,5H22.6Zm2.89,2.52L27,18.35h1a2,2,0,0,0,1.95-1.59,1.36,1.36,0,0,0-1.42-1.59Zm23.56-2.52h3.29l-2,12.68H49Zm5.79,0h7.23l-.44,2.76H59.72l-.35,2.17h3.74l-.44,2.76H58.93l-.36,2.24h3.94l-.44,2.76H54.84Zm-41.43,0h7.23l-.44,2.76H18.29l-.35,2.17h3.74l-.44,2.76H17.5l-.36,2.24h3.94l-.44,2.76H13.41Zm26.38,0h7.31l-.44,2.76h-4l-.35,2.17H48l-.44,2.76H43.88l-.8,5H39.79Zm24.21,0h4.29c5.11,0,6.28,3.84,5.88,6.34a7.76,7.76,0,0,1-7.9,6.34H64Zm2.85,2.76h.68c2.52,0,3.5,1.76,3.23,3.46a4.13,4.13,0,0,1-4.18,3.71h-.88ZM0,10.92H6.09l.72,9.21c4-6.92,8.12-13.59,12.25-20.13h2C16.69,8.36,12.37,16.78,8.2,25.33H3.72L2.63,15.17C2.36,12.65,1.85,11.58,0,11.3Z" transform="translate(0)" fill="#626f77"/><path d="M2.31,5.68,7.5,7.86,8,13.6h.38L13,5.68v-.4H2.31Zm24,28.74A1.29,1.29,0,0,1,27.51,36a1.82,1.82,0,0,1-1.66,1.6A1.29,1.29,0,0,1,24.66,36a1.82,1.82,0,0,1,1.66-1.6Zm-2.66-6.1h2.13l-.72,5a3.14,3.14,0,0,1,2.18-.94C29,32.37,30.08,34,29.78,36s-1.92,3.65-3.62,3.65a2.1,2.1,0,0,1-1.86-1l-.11.79H22.06Z" transform="translate(0)" fill="#626f77"/><path d="M30,32.54h2.56l1.14,3.54,2.22-3.54h2.47L31.88,42.88H29.41l2.73-4.36Zm21.1,6.92,1.87-11.15H56L54.13,39.45ZM48.51,28.28c-1.06,2.47-2,5.09-3,7.53l-.32-1.46v0l.05.26A6.87,6.87,0,0,0,44,32.43l0-.05q-.22-.28-.46-.54a11.17,11.17,0,0,0-2.59-2l2.72,9.64H47c1.55-3.76,3.22-7.4,4.78-11.14Z" transform="translate(0)" fill="#626f77"/><path d="M42.72,28.29h-5v.24c2.88.56,6.53,3,7.48,6.06L44.12,29.4A1.28,1.28,0,0,0,42.72,28.29Zm32.91,11.2H72.83c-.18-.53-.23-1.19-.42-1.72H68.59l-.72,1.72H64.65l4.18-9.55c.18-.42.52-1,.66-1.25s1-.42,1.38-.42h2.32l2.45,11.2ZM71,31.37l-1.56,4.14h2.52Z" transform="translate(0)" fill="#626f77"/></g></svg>