<svg xmlns="http://www.w3.org/2000/svg" viewBox="0 0 41 47.71"><title>weight-icon</title><path d="M14.82,14.7H26.93c3.52,0,4.81.3,6.14.89a8.11,8.11,0,0,1,3.3,2.65c.87,1.18,1.43,2.36,2.19,5.8l2.6,11.79a9,9,0,0,1-6.85,10.73l-.67.12-1.58.22a79.41,79.41,0,0,1-22.38,0l-1.58-.22A9,9,0,0,1,.47,36.51q0-.34.12-.67L3.19,24c.76-3.44,1.33-4.63,2.19-5.8a8.11,8.11,0,0,1,3.3-2.65C10,15,11.3,14.7,14.82,14.7Z" transform="translate(-0.38)" fill="#e2e2e2"/><circle cx="20.62" cy="10" r="7" fill="none" stroke="#e2e2e2" stroke-width="6"/><g style="isolation:isolate"><g style="isolation:isolate"><path d="M13.53,21.29v8.43l3.94-4.09h3.7l-4.29,4.18L21.65,37H17.86l-3.12-5.08-1.21,1.17V37H10.4V21.29Z" transform="translate(-0.38)" fill="#fff"/><path d="M33.49,37.84a3.85,3.85,0,0,1-.8,1.64,4.76,4.76,0,0,1-1.78,1.29,7.68,7.68,0,0,1-3.12.53,7.26,7.26,0,0,1-1.71-.21,5.4,5.4,0,0,1-1.58-.65,3.89,3.89,0,0,1-1.19-1.13,3.28,3.28,0,0,1-.54-1.66h3.1a1.78,1.78,0,0,0,.86,1.22,3.09,3.09,0,0,0,1.47.34,2.27,2.27,0,0,0,1.92-.79,3.11,3.11,0,0,0,.58-2v-1.5h0a3.1,3.1,0,0,1-1.44,1.33,4.66,4.66,0,0,1-2,.43,5,5,0,0,1-2.2-.45A4.16,4.16,0,0,1,23.54,35a5.14,5.14,0,0,1-.87-1.83A8.64,8.64,0,0,1,22.39,31a7.08,7.08,0,0,1,.32-2.12,5.55,5.55,0,0,1,.93-1.8,4.52,4.52,0,0,1,1.53-1.24,4.59,4.59,0,0,1,2.1-.46,4.41,4.41,0,0,1,2,.42,3.4,3.4,0,0,1,1.42,1.41h0V25.63h3V36.27A7.66,7.66,0,0,1,33.49,37.84Zm-4.28-3.78a2.43,2.43,0,0,0,.84-.7,3.13,3.13,0,0,0,.5-1,4.13,4.13,0,0,0,.17-1.18,6.46,6.46,0,0,0-.13-1.33,3.34,3.34,0,0,0-.44-1.11,2.28,2.28,0,0,0-.81-.77A2.57,2.57,0,0,0,28,27.67a2.29,2.29,0,0,0-1.13.26,2.38,2.38,0,0,0-.79.72,3,3,0,0,0-.46,1,5.1,5.1,0,0,0-.14,1.22,6.18,6.18,0,0,0,.12,1.22,3.3,3.3,0,0,0,.42,1.09,2.43,2.43,0,0,0,.78.79,2.2,2.2,0,0,0,1.21.31A2.49,2.49,0,0,0,29.21,34.05Z" transform="translate(-0.38)" fill="#fff"/></g></g></svg>